<svg xmlns="http://www.w3.org/2000/svg" width="52" height="48" viewBox="0 0 52 48">
  <path id="Icon_ionic-md-business" data-name="Icon ionic-md-business" d="M30,15.163V4.5H3.375v48h52V15.163Zm-15.975,32H8.7V41.825h5.325Zm0-10.662H8.7V31.162h5.325Zm0-10.662H8.7V20.5h5.325Zm0-10.675H8.7V9.825h5.325Zm10.65,32H19.35V41.825h5.325Zm0-10.662H19.35V31.162h5.325Zm0-10.662H19.35V20.5h5.325Zm0-10.675H19.35V9.825h5.325Zm25.375,32H30V41.825h5.325V36.5H30V31.162h5.325V25.825H30V20.5H50.05Zm-4.7-21.325H40.025v5.338H45.35Zm0,10.662H40.025v5.338H45.35Z" transform="translate(-3.375 -4.5)" fill="#006298"/>
</svg>
