<svg xmlns="http://www.w3.org/2000/svg" width="63.824" height="54.689" viewBox="0 0 63.824 54.689">
  <g id="Group_6212" data-name="Group 6212" transform="translate(-1545.561 -133.441)">
    <g id="Group_5968" data-name="Group 5968" transform="translate(1545.561 133.441)">
      <path id="Path_1" data-name="Path 1" d="M372.142,281.72a6.391,6.391,0,0,1-5.458-3.046l-5.516-9.045a2.329,2.329,0,1,1,3.977-2.425l5.515,9.045a1.716,1.716,0,0,0,2.232.633L393.522,266.4a2.329,2.329,0,1,1,2.11,4.152L375,281.034a6.3,6.3,0,0,1-2.859.683" transform="translate(-345.164 -227.031)" fill="#00c18b"/>
      <path id="Path_2" data-name="Path 2" d="M382.821,191.859a5.621,5.621,0,0,0-3.768-2.263l-5.514-.76a1.636,1.636,0,0,1-1.03-.564l-9.529-11.362a6.288,6.288,0,0,0-3.934-2.184l-6.713-.956a1.641,1.641,0,0,1-.736-.3l-8.634-6.307a6.263,6.263,0,0,0-2.207-1.028l-6.244-1.539a6.318,6.318,0,0,0-6.408,2.164l-6.668,8.281a6.31,6.31,0,0,0-.472,7.221l10.605,17.393c.008.014.018.025.026.038.024.037.049.072.073.113a.8.8,0,0,0,.064.086c.021.028.047.058.071.085s.054.062.083.091l.068.065c.033.03.065.061.1.09s.047.037.07.056.07.054.106.079.056.037.085.054.068.043.1.062.069.036.1.053.062.032.094.045l.12.049.089.033c.041.014.082.025.125.037s.063.017.095.024l.113.023.113.017.1.01c.045,0,.09.006.135.007h6.819a2.329,2.329,0,0,0,2.274-1.832l1.518-6.95,3.8,12.787a2.328,2.328,0,0,0,2.165,1.663h.068a2.329,2.329,0,0,0,2.19-1.537l2.575-7.134.35,1.159a2.328,2.328,0,0,0,2.229,1.655h7.724a2.329,2.329,0,0,0,0-4.657h-5.994l-1.882-6.232a2.329,2.329,0,0,0-4.419-.113l-2.558,7.085L346.008,182a2.329,2.329,0,0,0-4.507.167l-3.046,13.953h-3.593l-9.928-16.277a1.642,1.642,0,0,1,.123-1.879l6.668-8.281a1.644,1.644,0,0,1,1.666-.564l6.244,1.539a1.63,1.63,0,0,1,.574.267l8.633,6.307a6.318,6.318,0,0,0,2.826,1.149l6.713.956a1.632,1.632,0,0,1,1.023.564l9.535,11.358a6.283,6.283,0,0,0,3.961,2.189l5.514.76a.938.938,0,0,1,.79,1.1l-.58,3.159a.288.288,0,0,1-.152.2l-2.984,1.516a2.329,2.329,0,1,0,2.109,4.152l2.984-1.517A4.973,4.973,0,0,0,383.2,199.3l.58-3.159a5.621,5.621,0,0,0-.969-4.287" transform="translate(-320.049 -164.416)" fill="#006098"/>
    </g>
  </g>
</svg>
